<?xml version="1.0" encoding="UTF-8"?>
<svg id="Livello_1" xmlns="http://www.w3.org/2000/svg" version="1.1" viewBox="0 0 605 604.7">
  <!-- Generator: Adobe Illustrator 30.5.1, SVG Export Plug-In . SVG Version: 2.1.4 Build 3)  -->
  <defs>
    <style>
      .st0 {
        fill: #7f9c2a;
      }

      .st1 {
        fill: #79c5b5;
      }

      .st2 {
        fill: #204769;
      }

      .st3 {
        fill: #edaa41;
      }

      .st4 {
        fill: #e09545;
      }

      .st5 {
        fill: #fff;
      }

      .st6 {
        fill: #f3ab2b;
      }

      .st7 {
        fill: #f0c54e;
      }

      .st8 {
        fill: #a0844b;
      }

      .st9 {
        fill: #d9773c;
      }
    </style>
    <radialGradient id="silverGrad" gradientUnits="userSpaceOnUse" cx="302.5" cy="302.4" r="242">
      <stop offset=".40" stop-color="#e9eef2"/>
      <stop offset=".55" stop-color="#cbd4dc"/>
      <stop offset=".66" stop-color="#f4f7f9"/>
      <stop offset=".80" stop-color="#aab6c1"/>
      <stop offset="1" stop-color="#7e8b97"/>
    </radialGradient>
  </defs>
  <path id="t-wheel" class="st6" d="M589.7,287.3h-23.1c-3.5-62.1-28.3-118.4-67-161.6l16.2-16.2c5.9-5.9,5.9-15.3,0-20.7-5.9-5.5-15.3-5.9-20.7,0l-16.2,16.2c-43.3-38.6-99.5-63.3-161.5-66.9V15c0-8.2-6.6-15-15-15s-15,6.6-15,15v23.1c-62.1,3.5-118.4,28.3-161.6,67l-16.1-16.4c-5.9-5.9-15.3-5.9-20.7,0s-5.9,15.3,0,20.7l16.2,16.2c-38.8,43.3-63.5,99.5-67,161.6H15c-8.2,0-15,6.6-15,15s6.6,15,15,15h23.1c3.5,62.1,28.3,118.4,67,161.6l-16.2,16.2c-5.9,5.9-5.9,15.3,0,20.7s15.3,5.9,20.7,0l16.2-16.2c43.3,38.6,99.5,63.3,161.6,67v22.9c0,8.2,6.6,15,15,15s15-6.6,15-15v-23.1c62.1-3.5,118.4-28.3,161.6-67l16.2,16.2c5.9,5.9,15.3,5.9,20.7,0,5.9-5.9,5.9-15.3,0-20.7l-16.2-16.2c38.6-43.3,63.3-99.5,67-161.6h23.1c8.2,0,15-6.6,15-15s-6.4-14.9-14.6-14.9h-.7Z"/>
  <circle id="t-disc" class="st2" cx="302.5" cy="302.4" r="242.3"/>
  <g>
    <g id="seg-operation">
      <path class="st0" d="M463.7,371.6c.8-.2,1.5-.7,1.7-1.6.4-.8.4-1.7,0-2.4-.4-.7-1.2-1.4-2.3-1.9-1.2-.4-2.2-.6-3-.4s-1.4.8-1.8,1.7-.4,1.7,0,2.4c.4.7,1.2,1.4,2.3,1.9,1.2.4,2.2.6,3.1.3Z"/>
      <path class="st0" d="M475.5,314.6c.3.3.7.5,1.2.5.6,0,1-.1,1.2-.4s.4-.7.4-1.3v-2.2c.1,0-3.1-.2-3.1-.2v2.2c-.2.7,0,1.1.2,1.4Z"/>
      <polygon class="st0" points="468 346.1 472.6 345.9 468.8 343.5 468 346.1"/>
      <path class="st0" d="M472.6,335.8c0,.5.5.8,1.1.9.7,0,1.2,0,1.5-.4.2-.2.3-.6.4-1.1l.5-2.7-2.9-.6-.5,2.5v1.3Z"/>
      <path class="st0" d="M503.5,399.1c14.6-28.6,17.7-53.2,18.9-60.4,8.4-53.8-2-103.1-28.8-145.8l-.4.9-26.6,71.6-73.1-26.5s28.7,33.8,21.9,83c-.6,4.7-1.7,9.2-1.7,9.2-1.3,5.5-3.6,13-7.8,21.1,0,0-3,5.9-6.1,10.8l-3.1,76.6,77.9,2.5c18.8-20.8,29.1-42.8,29.1-42.8ZM469.2,301.5c0-1.6.4-2.8,1.3-3.6,1-1.2,2.5-1.7,4.6-1.7,2,0,3.6.5,4.6,1.7.9.9,1.3,2,1.3,3.6s-.4,2.8-1.3,3.6c-1,1.2-2.5,1.7-4.6,1.7-2,0-3.6-.5-4.6-1.7-.8-.8-1.3-2-1.3-3.6ZM473.3,311.1l-4-.2v-2.3c.1,0,11.3.7,11.3.7l-.3,4.8c0,1.1-.4,2-1,2.6s-1.5.9-2.7.8c-1.3-.1-2.2-.4-2.8-1.2s-.7-1.6-.7-2.8v-2.3ZM468.8,318.6l11.1,1.3-.9,8.1-2-.2.7-5.8-2.3-.3-.7,5.3-2-.2.7-5.3-2.8-.4-.7,6.1-2-.2.9-8.4ZM465.8,337.8l.4-2.5c.3,0,.4,0,.6,0,.3,0,.7,0,.9,0h1c.7.3,1.2.2,1.5,0s.5-.7.6-1.3l.4-2.3-4.3-.8.4-2.2,10.9,2-1,5.4c-.1.7-.4,1.4-.6,1.7-.2.4-.6.7-.9.9-.3.1-.7.4-1,.4-.4,0-.8,0-1.2,0-.5,0-1-.3-1.5-.7-.5-.4-.7-.9-.8-1.5-.3.4-.7.8-1.1.9s-1,.1-1.7,0h-.7c-.5-.2-.9-.3-1-.3-.3,0-.5,0-.7.3l-.2-.2ZM463.6,346.5h2.4c0,0,1-4,1-4l-2-1.3.6-2.3,9.8,6.6-.7,2.5-11.8,1,.7-2.5ZM462.1,351.3l8.7,2.8,1-3.2,1.9.6-2.8,8.6-1.9-.6,1-3.2-8.7-2.8.7-2.2ZM460,357.6l10.4,3.9-.8,2.1-10.4-3.9.8-2.1ZM456.4,366.1c.6-1.5,1.5-2.4,2.6-2.9,1.4-.7,3.1-.6,4.9.2s3.1,1.9,3.6,3.3c.5,1.1.4,2.4-.2,3.9-.6,1.5-1.5,2.4-2.6,2.9-1.4.7-3,.5-4.9-.2-1.8-.8-3.1-1.9-3.6-3.3-.5-1.1-.4-2.3.2-3.9ZM449.8,380.6l1-2,9.1-.5-7.1-3.6.9-2,9.9,5.1-1.1,2.1-8.9.4,6.9,3.6-1,1.9-9.8-5Z"/>
      <path class="st0" d="M478,299.3c-.7-.5-1.7-.8-2.8-.8s-2.2.3-2.9.9c-.7.5-1,1.3-1,2.2s.4,1.7,1,2.2c.7.5,1.7.8,2.9.7s2.2-.3,2.9-.9c.7-.5,1-1.3,1-2.2,0-.8-.5-1.5-1.1-2.1Z"/>
      <path class="seg-metal" d="M503.5,399.1c14.6-28.6,17.7-53.2,18.9-60.4,8.4-53.8-2-103.1-28.8-145.8l-.4.9-26.6,71.6-73.1-26.5s28.7,33.8,21.9,83c-.6,4.7-1.7,9.2-1.7,9.2-1.3,5.5-3.6,13-7.8,21.1,0,0-3,5.9-6.1,10.8l-3.1,76.6,77.9,2.5c18.8-20.8,29.1-42.8,29.1-42.8Z"/>
    </g>
    <g id="seg-purchasing">
      <polygon class="st7" points="297.9 474.4 299.4 470.1 296.6 470 297.9 474.4"/>
      <path class="st7" d="M352,466.3c.1.6.4.9.8,1.1.4,0,.8,0,1.3,0l2.1-.7-.9-3.1-2.1.7c-.5.2-.9.4-1.1.8-.2.2-.2.7,0,1.2Z"/>
      <path class="st7" d="M466.2,447.2h-2.9l-75.7-2.7,3.6-75.2s-22.7,35.1-71.5,43.9c-4.7.9-9.3,1.2-9.3,1.2-5.7.4-13.4.6-22.4-.9,0,0-2.9-.3-9.4-2.3l-74.5,21.3,22.3,74.4c25.4,11.3,47,13.8,47,13.8,31.8,5.1,56.1.4,63.2-.7,53.8-8.5,97.2-34.2,129.7-72.8ZM263.2,471c-1.2.8-2.6,1-4.2.6-1.4-.4-2.4-.9-3.1-1.9s-.9-1.9-.8-3l2.2.6c0,.7.2,1.4.9,1.9.3.3.7.4,1.2.6.9.3,1.7,0,2.4-.4.7-.5,1.2-1.4,1.6-2.8.3-1.3.3-2.3-.1-3.1s-1-1.2-1.8-1.4-1.5-.1-2,.1c-.6.3-1.1.8-1.3,1.5l2.5.7-.5,1.8-4.5-1.2,1.5-5.8,1.5.4v1.4c.5-.4,1-.7,1.4-.7.7-.2,1.5-.1,2.3,0,1.4.4,2.5,1.2,3.1,2.4s.8,2.7.4,4.4c-.6,1.7-1.4,3-2.6,3.8ZM273,474.4l-2.9-8.4-1.4,7.6-2.1-.4,2-10.9,2.3.4,3.1,8.6,1.5-7.7,2.1.4-2,10.9-2.5-.5ZM277.8,475.2l1.5-11,2.3.3-1.5,11-2.3-.3ZM289.9,475.9c-.7.6-1.8.8-3.3.7-1.2-.1-2.1-.5-2.9-1.2-.7-.7-1.1-1.7-1-2.8l2.3.2c0,.7.2,1.2.7,1.5.4.2.8.4,1.3.4.6,0,1.1,0,1.5-.3.4-.2.6-.6.7-.9,0-.4-.1-.7-.4-.9-.1-.1-.7-.4-1.5-.6l-1.8-.7c-.9-.3-1.5-.6-1.8-.9-.6-.6-.9-1.3-.8-2.4.1-1,.5-1.8,1.4-2.4.9-.6,2-.8,3.4-.7,1.5.1,2.5.5,3.4,1.3s1.1,1.7.9,2.8l-2.3-.2c0-.5-.1-.9-.3-1.2-.4-.5-.9-.8-1.9-.9-.5,0-1,0-1.4,0-.7.2-1,.6-1.1,1.2,0,.4,0,.7.4.9s.7.4,1.5.7l1.1.4c1.1.4,1.9.7,2.3,1.1.7.6,1,1.5.9,2.5.1.9-.3,1.7-1.1,2.3ZM296.4,476.9l-3.6-11.2h2.5c0,0,.7,2.3.7,2.3h4.1c0,.1.8-2.1.8-2.1h2.4c0,0-4.3,11.1-4.3,11.1h-2.5ZM311.6,476.8v-4.2c-.1,0-4.5.1-4.5.1v4.2c.1,0-2.1,0-2.1,0l-.4-11.1h2.3c0,0,.1,4.9.1,4.9h4.4c0-.1-.1-5.1-.1-5.1h2.3c0,0,.4,11,.4,11h-2.3ZM321.2,476.3c-1.8.2-3.3-.2-4.3-1.4-.5-.7-.9-1.3-.9-2l2.3-.3c.2.5.4.9.7,1.2.4.4,1.1.7,2,.5.8,0,1.5-.4,1.8-1.2.4-.7.6-1.7.4-2.9s-.5-2.1-1.1-2.7-1.2-.8-2-.7-1.4.4-1.7,1c-.2.4-.4.8-.4,1.3l-2.3.2c0-1.2.5-2.3,1.2-3.1.7-.9,1.7-1.3,3.1-1.5,1.6-.1,2.8.2,3.9,1.2,1,.9,1.6,2.3,1.7,4.1.2,2-.1,3.5-1.1,4.6-.9,1-2,1.6-3.4,1.7ZM331.8,474.6c-.7.1-1.4,0-1.8,0s-.9-.3-1.2-.6-.5-.5-.7-.9-.4-.7-.4-1.1c0-.5,0-1.1.1-1.6.1-.6.5-.9,1.2-1.3-.6-.1-.9-.4-1.2-.7s-.4-.9-.7-1.7v-.7c-.2-.5-.3-.9-.4-1-.1-.3-.3-.4-.5-.5v-.3l2.5-.4c0,.2.1.4.3.6.1.3.2.7.2.9v1c.3.7.5,1.1.7,1.3.3.1.8.2,1.5.1l2.3-.4-.8-4.3,2.3-.4,1.9,10.9-5.2.9ZM346.3,471.6l-1.7-6.6c-.1-.7-.4-1.2-.7-1.5-.4-.6-1.1-.7-2-.4-.9.2-1.4.7-1.5,1.4,0,.4,0,.9.1,1.7l1.7,6.6-2.3.6-1.7-6.6c-.3-1.2-.4-2.1-.1-2.8.4-1.4,1.5-2.3,3.4-2.7s3.3-.2,4.2.9c.5.5.9,1.4,1.2,2.5l1.7,6.6-2.3.3ZM354.4,469.3c-1.1.4-2,.4-2.8,0s-1.4-1.1-1.7-2.2c-.4-1.2-.4-2.3,0-3s1.3-1.3,2.5-1.6l2.3-.7-1.2-3.8,2.2-.7,3.4,10.6-4.7,1.3Z"/>
      <path class="st7" d="M330.4,470c-.4.3-.6.7-.4,1.3,0,.7.4,1.1.9,1.2.2,0,.7,0,1.2,0l2.6-.4-.5-3-2.6.4c-.6.1-.9.4-1.2.4Z"/>
      <path class="seg-metal" d="M466.2,447.2h-2.9l-75.7-2.7,3.6-75.2s-22.7,35.1-71.5,43.9c-4.7.9-9.3,1.2-9.3,1.2-5.7.4-13.4.6-22.4-.9,0,0-2.9-.3-9.4-2.3l-74.5,21.3,22.3,74.4c25.4,11.3,47,13.8,47,13.8,31.8,5.1,56.1.4,63.2-.7,53.8-8.5,97.2-34.2,129.7-72.8Z"/>
    </g>
    <g id="seg-hr">
      <path class="st1" d="M138.6,335.7c-.1-.9-.7-1.5-1.5-1.9-.8-.4-1.7-.4-3-.2s-2.1.7-2.7,1.4c-.5.7-.7,1.5-.6,2.3s.7,1.5,1.5,1.9c.8.4,1.7.4,3,.2s2.1-.7,2.7-1.4c.6-.6.8-1.4.6-2.3Z"/>
      <path class="st1" d="M130.7,312c-.3-.4-.7-.7-1.3-.6-.7,0-1.2.3-1.3.7-.1.3-.1.6-.1,1.2l.2,2.7,3-.2v-2.6c-.2-.5-.2-.9-.4-1.2Z"/>
      <path class="st1" d="M143.2,366.6c-.4-.4-.9-.4-1.5-.1-.6.3-.9.7-1,1.2,0,.3,0,.7.2,1.1l1,2.5,2.8-1.2-1-2.5c0-.4-.3-.7-.5-.9Z"/>
      <polygon class="st1" points="154.5 393.4 159 392.2 157.5 389.8 154.5 393.4"/>
      <path class="st1" d="M215.7,501.8l-21.9-74.6,73.1-20.5s-41.6-10.6-65.1-54.3c-2.3-4.2-4-8.4-4-8.4-2.3-5.3-4.7-12.6-6.1-21.6,0,0-1-2.2-1.2-9l-44.6-63.1-62.9,42.8c-2.8,27.8,2.1,48.4,2.1,48.4,5,31.8,16.9,53.5,20.2,60,24.8,48.5,63.7,82.2,110.6,101.1l-.2-.9ZM127.3,283.6c-.5-.8-.7-1.9-.6-3.4.1-1.2.6-2.2,1.3-2.9s1.7-1.1,2.8-.9l-.3,2.2c-.7,0-1.2.1-1.5.7-.2.4-.4.8-.4,1.3,0,.7,0,1.1.1,1.5.2.4.5.7.9.7.4,0,.7,0,.9-.4s.4-.7.7-1.4l.7-1.8c.4-.8.7-1.4,1-1.7.6-.6,1.4-.8,2.4-.7s1.8.7,2.3,1.5c.6.9.8,2,.6,3.4-.1,1.5-.7,2.5-1.4,3.3s-1.7,1-2.9.9l.3-2.2c.5,0,.9,0,1.2-.3.5-.4.8-.9.9-1.8,0-.5,0-.9,0-1.3-.1-.7-.5-1.1-1.2-1.2-.4,0-.7,0-.9.4s-.5.8-.7,1.5l-.4,1.2c-.4,1.1-.8,1.8-1.1,2.3-.6.7-1.4.9-2.5.8-.8,0-1.5-.5-2.2-1.3ZM126.4,286.9h2c0,0-.4,6-.4,6h2.3c0,.1.3-5.2.3-5.2h1.9c0,.1-.3,5.5-.3,5.5l2.8.2.4-6.1h2c0,.1-.5,8.5-.5,8.5l-11.1-.7.4-8.2ZM125.5,302.2c0-1.9.6-3.2,1.8-4.2.7-.5,1.4-.8,2.1-.8v2.3c-.6.1-.9.4-1.2.6-.4.4-.7,1-.7,1.9,0,.9.4,1.5,1,2,.7.5,1.6.7,2.9.7s2.2-.3,2.8-.8c.7-.5.9-1.2.9-2,0-.9-.3-1.5-.8-1.8-.3-.3-.7-.4-1.3-.6v-2.3c1.2.2,2.2.7,3,1.5s1.2,1.9,1.2,3.2-.5,2.8-1.5,3.7c-1,.9-2.4,1.4-4.3,1.4s-3.4-.5-4.5-1.6c-1-.7-1.5-1.9-1.5-3.4ZM126.1,313c0-.8,0-1.4.2-1.8.1-.4.4-.8.7-1.1s.6-.4.9-.7c.3-.1.7-.3,1.2-.3.5,0,1.1,0,1.6.3.5.2.9.7,1.2,1.3.2-.5.4-.9.8-1.1s.9-.4,1.7-.4h.7c.5,0,.8,0,1-.1.2,0,.5-.2.6-.4h.3s.2,2.5.2,2.5c-.2,0-.4.1-.6.1-.4,0-.6.1-.9.2h-1c-.7.2-1.2.4-1.4.7s-.3.7-.3,1.5l.2,2.4,4.4-.3.2,2.3-11.1.7-.7-5.8ZM127.6,327.8l6.8-.9c.7-.1,1.3-.3,1.7-.5.5-.4.8-.9.7-2,0-.9-.5-1.5-1.2-1.7-.4,0-.9-.1-1.7,0l-6.8.9-.3-2.3,6.8-.9c1.2-.1,2.1,0,2.8.1,1.2.5,2,1.7,2.3,3.6s-.2,3.3-1.2,4.2c-.6.4-1.5.7-2.7.9l-6.8.9-.4-2.3ZM131.1,341.1c-1-.6-1.7-1.7-2-3.3s-.1-2.8.5-3.9c.7-1.3,2.2-2.2,4.2-2.5s3.6-.2,4.8.7c1,.6,1.7,1.7,2,3.3.4,1.5.1,2.8-.5,3.9-.8,1.4-2.2,2.2-4.2,2.5-2,.4-3.6,0-4.8-.7ZM136.4,352.5c-.9.2-1.9.1-2.7-.4-.8-.5-1.5-1.5-1.8-2.8-.3-1.2-.3-2.2,0-3.1.4-.9,1.2-1.6,2.3-2l.6,2.2c-.7.2-1,.6-1.1,1.2,0,.4,0,.9,0,1.4.1.6.4,1,.7,1.3s.7.4,1.1.2c.4,0,.7-.4.7-.7,0-.2,0-.8,0-1.5v-2c0-.9,0-1.5.2-2,.4-.8,1-1.3,1.9-1.6,1-.3,1.9-.1,2.8.4s1.5,1.5,1.9,2.9.4,2.5,0,3.6-1.2,1.6-2.3,2l-.6-2.2c.5-.2.8-.5,1-.7.4-.5.4-1.2.1-2-.1-.6-.4-.9-.5-1.2-.4-.6-.9-.7-1.5-.6-.4,0-.6.3-.7.7,0,.4-.1.9-.1,1.6v1.2c.1,1.2,0,2-.1,2.5-.4.7-1,1.3-2,1.6ZM134,355.4l1.8-.7,1.9,5.5,2.3-.8-1.7-5.1,1.8-.7,1.7,5.1,2.7-.9-2-5.8,1.8-.7,2.8,8-10.5,3.6-2.5-7.6ZM141.2,374.1l-2.1-5c-.3-.7-.4-1.3-.4-1.7s.1-.9.3-1.3c.1-.3.4-.7.7-.9s.6-.4.9-.7c.5-.2,1-.3,1.6-.3s1.1.4,1.5.8c0-.6.1-1,.4-1.4s.8-.7,1.5-1l.7-.3c.5-.2.8-.4.9-.5.2-.2.4-.4.4-.6h.3c0-.1,1,2.2,1,2.2-.1.1-.4.2-.5.4-.3.1-.5.4-.9.4l-.9.4c-.6.3-1,.6-1.2.9s0,.8.2,1.4l.9,2.3,4-1.7.9,2-10.3,4.7ZM148.6,388.5l-1.2-2.2,4.7-7.6-6.8,3.6-1-1.9,9.8-5.2,1.2,2-4.8,7.7,6.9-3.7,1,1.9-9.8,5.4ZM151.7,393.6l7.3-9.3,1.4,2.1-1.5,1.8,2.2,3.5,2.3-.6,1.3,2-11.5,2.6-1.5-2.2ZM162.7,409.5l-2-2.7,5.8-6.8-8.2,3.6-2-2.7,9-6.6,1.3,1.7-6,4.4c-.1.1-.4.3-.7.6-.4.2-.6.4-.7.6l8.8-3.9,1.4,1.8-6.3,7.3c.1-.1.4-.3.7-.6s.6-.4.7-.6l6-4.4,1.3,1.7-9.2,6.6ZM175.5,413.9l-5.2,4.4-1.5-1.8,5.2-4.4c.6-.4.9-.9,1.1-1.2.3-.6.1-1.3-.5-2-.6-.7-1.2-.9-1.9-.7-.4,0-.9.4-1.5.9l-5.2,4.4-1.5-1.8,5.2-4.4c.9-.7,1.7-1.2,2.4-1.4,1.4-.2,2.7.4,3.9,1.7,1.3,1.5,1.7,2.8,1.2,4.2-.3.7-.9,1.5-1.7,2.2ZM178.3,426.8l-1.6-1.6,3.1-2.9-3-3.1-3.1,2.9-1.6-1.6,8-7.7,1.6,1.6-3.6,3.4,3,3.1,3.6-3.4,1.6,1.6-8,7.7Z"/>
      <path class="seg-metal" d="M215.7,501.8l-21.9-74.6,73.1-20.5s-41.6-10.6-65.1-54.3c-2.3-4.2-4-8.4-4-8.4-2.3-5.3-4.7-12.6-6.1-21.6,0,0-1-2.2-1.2-9l-44.6-63.1-62.9,42.8c-2.8,27.8,2.1,48.4,2.1,48.4,5,31.8,16.9,53.5,20.2,60,24.8,48.5,63.7,82.2,110.6,101.1l-.2-.9Z"/>
    </g>
    <g id="seg-finance">
      <path class="st4" d="M191.1,304.4h0q0,0,0,0Z"/>
      <polygon class="st4" points="187.3 178.4 189.4 176.5 185.4 174.2 187.3 178.4"/>
      <path class="st4" d="M222.6,224.1c3.3-3.4,6.7-6.4,6.7-6.4,4.4-3.8,10.6-8.4,18.6-12.5,0,0,.8-.8,7.2-3l48.3-60.8-59.8-48.7c-27.2,5.8-46.8,17.1-46.8,17.1-28.7,14.6-45.6,32.6-50.8,37.8-38.5,38.5-59.4,87.9-62.9,138.3l.9-.4,64.6-43.9,42.5,63.1c-.1-1.6-1.7-45.8,31.5-80.4ZM189.1,182.5l-1.8,1.7-4.5-10.9,1.9-1.7,10.4,5.6-1.8,1.7-2.1-1.2-3.1,2.8,1,2.2ZM173.9,182l8.7,2.3-5.5-5.4,1.5-1.5,8,7.7-1.7,1.7-8.8-2.3,5.7,5.5-1.5,1.5-8-7.7,1.7-1.8ZM170.5,185.6l8.4,7.4-1.5,1.7-8.4-7.4,1.5-1.7ZM162.9,194.7l5-6.1,1.5,1.2-3.5,4.4,2,1.6,3.1-3.8,1.5,1.2-3.1,3.8,3.6,2.9-1.5,1.7-8.7-7ZM201.3,172.1l-8.5-3.4,4.9,6.2-1.7,1.4-6.8-8.7,1.9-1.5,8.3,3.4-4.8-6.1,1.7-1.4,6.8,8.7-1.8,1.4ZM208.7,167.2c-1.3.9-2.6,1.2-3.9.9-1.3-.3-2.5-1.2-3.5-2.8-1.2-1.6-1.5-3.1-1.2-4.6.2-1.2.9-2.3,2-3.1,1.5-1.1,3.1-1.3,4.4-.8.7.3,1.4.7,1.8,1.2l-1.9,1.3c-.4-.4-.9-.6-1.2-.7-.6-.1-1.3,0-2,.5-.7.4-1,1.2-1.1,2s.3,1.7,1,2.8c.7,1,1.5,1.6,2.2,1.9.8.2,1.5.1,2.1-.4.7-.5,1-1,1.1-1.7,0-.4,0-.8-.2-1.4l1.9-1.3c.5,1.1.7,2.3.4,3.3-.3,1.2-.9,2-2,2.8ZM208.2,153.8l7.1-4.2,1,1.7-5,3,1.2,2,4.7-2.8.9,1.7-4.7,2.8,1.5,2.5,5.3-3.1,1,1.7-7.2,4.3-5.8-9.7Z"/>
      <path class="seg-metal" d="M222.6,224.1c3.3-3.4,6.7-6.4,6.7-6.4,4.4-3.8,10.6-8.4,18.6-12.5,0,0,.8-.8,7.2-3l48.3-60.8-59.8-48.7c-27.2,5.8-46.8,17.1-46.8,17.1-28.7,14.6-45.6,32.6-50.8,37.8-38.5,38.5-59.4,87.9-62.9,138.3l.9-.4,64.6-43.9,42.5,63.1c-.1-1.6-1.7-45.8,31.5-80.4Z"/>
    </g>
    <g id="seg-sales">
      <path class="st9" d="M382.6,154c-.3.1-.5.4-.7.7-.1.3-.2.7,0,1.1s.4.7.8.9c.3.1.7.2,1,.3.3,0,.7,0,.9,0l-.6-3.2c-.7,0-1.2.1-1.5.3Z"/>
      <path class="st9" d="M421.6,175.9c0-.2-.3-.6-.7-.9l-2-1.8-2,2.2,2,1.8c.4.4.7.6.9.7.4.1.9,0,1.3-.4.5-.5.7-1.1.5-1.5Z"/>
      <path class="st9" d="M385.7,152c.4,0,.7,0,.9-.1.4,0,.6-.3.7-.6,0-.2.1-.4,0-.7s-.1-.4-.4-.6c-.2,0-.3-.1-.6-.1s-.5.2-.7.4c0,.2-.1.4,0,.7,0,.1,0,.5.1,1Z"/>
      <polygon class="st9" points="343.6 138.7 343.2 134.1 340.8 138 343.6 138.7"/>
      <path class="st9" d="M268.5,199.2h0,0Z"/>
      <polygon class="st9" points="407.5 169.9 409.6 171.8 411.3 167.5 407.5 169.9"/>
      <path class="st9" d="M486.4,184.7c-14-24.2-31.8-40.3-31.8-40.3-22.7-22.9-45.1-33.3-51.6-36.6-48.5-24.8-98.3-30.2-147.2-18l.7.7,59.6,49.1-47.5,59.6c2.5-1.5,42.7-15.4,85.2,5.1,4.2,2,8.2,4.4,8.2,4.4,4.9,3,11.2,7.4,17.6,13.8,0,0,1,1,5.2,6.5l74,27.4,27.7-71.7ZM334.4,140.1c-.9.6-2,.7-3.4.5s-2.5-.7-3.2-1.6c-.7-.8-1-1.7-.7-2.9l2.2.4c0,.5,0,.9.2,1.2.4.5.9.9,1.7,1,.5,0,1,.1,1.4,0,.7,0,1.1-.5,1.2-1.2,0-.4,0-.7-.4-.9s-.8-.5-1.4-.8l-1.2-.4c-1.1-.5-1.9-.9-2.3-1.2-.7-.7-.9-1.5-.7-2.5.1-1,.7-1.7,1.5-2.3.8-.5,2-.7,3.4-.4,1.2.1,2.1.7,2.8,1.4s1,1.7.9,2.9l-2.3-.4c0-.7-.1-1.2-.7-1.5-.4-.2-.7-.4-1.2-.5-.6-.1-1.1,0-1.5.1s-.7.5-.7.9c0,.4,0,.7.4.9s.7.4,1.4.7l1.8.8c.8.4,1.4.7,1.7,1.2.6.6.7,1.5.7,2.4-.4.9-.9,1.7-1.7,2.2ZM343.9,143l-.2-2.4-4-.9-1.3,2-2.3-.6,6.4-9.9,2.5.7,1.2,11.7-2.3-.6ZM347.6,144l3.2-10.6,2.3.7-2.6,8.7,5.2,1.6-.6,1.9-7.5-2.3ZM356.5,146.8l3.9-10.4,7.6,2.8-.7,1.8-5.5-2-.8,2.3,5.1,1.9-.7,1.8-5.1-1.9-.9,2.7,5.8,2.1-.7,1.9-7.9-3ZM373,152.7c-1,.3-2.1.2-3.4-.4s-2.3-1.4-2.7-2.3-.5-2,0-3l2,.9c-.1.4-.1.9,0,1.2.1.6.7,1.1,1.5,1.4.5.2.9.4,1.2.4.7,0,1.1-.2,1.4-.8s0-.7,0-.9c-.2-.4-.7-.7-1.2-1.1l-1-.7c-.9-.7-1.6-1.3-1.9-1.7-.5-.8-.5-1.7,0-2.7.4-.9,1.1-1.5,2-1.8.9-.3,2-.1,3.3.4,1.1.5,1.9,1.2,2.3,2,.5.9.6,1.9,0,3l-2-.9c.2-.7.1-1.2-.2-1.7-.3-.3-.6-.6-1.1-.8s-1-.3-1.5-.3c-.4,0-.7.3-.9.7-.2.4-.1.7.1,1s.5.5,1.2,1l1.6,1.2c.7.5,1.2,1,1.4,1.5.4.7.4,1.5,0,2.5-.2.9-.9,1.6-1.9,1.9ZM385.1,159.8l-.2-1.2c-.5,0-.9.2-1.3.1-.7,0-1.2-.2-1.9-.6-1-.6-1.6-1.3-1.8-2.1s-.1-1.7.2-2.4c.3-.6.7-1,1.2-1.2s1.2-.4,2.1-.5h.3c0-.5-.1-.9-.1-1.3s0-.8.3-1.2c.4-.7.9-1.1,1.7-1.2.7-.1,1.5,0,2.2.4.7.4,1.2.9,1.4,1.5s.1,1.3-.2,2c-.3.6-.7.9-1.2,1.2s-1,.3-1.7.3l.4,2.5c.3-.1.6-.3.8-.5s.4-.4.6-.7l1.7.9c-.3.6-.8,1.1-1.4,1.5-.3.3-.8.5-1.3.7l.6,3.1-2.3-1.2ZM399.2,168.9l4.3-6.2c.1-.1.3-.4.6-.7.2-.4.4-.6.6-.7l-7.1,6.5-1.9-1.3,3.6-8.9c-.1.1-.3.4-.5.8s-.4.6-.5.8l-4.3,6.2-1.8-1.2,6.3-9.1,2.8,1.9-3.4,8.3,6.6-6,2.8,1.9-6.3,9.1-1.8-1.2ZM408,175.9l.9-2.2-3.2-2.6-2,1.3-1.8-1.5,10.1-6.1,2,1.6-3.9,11.1-2-1.5ZM415.9,182.9c0-.2.2-.4.3-.6.1-.3.4-.5.6-.7l.7-.8c.5-.5.7-.9.7-1.3,0-.4-.3-.7-.8-1.2l-1.7-1.6-2.9,3.2-1.7-1.5,7.6-8.2,4,3.7c.6.6.9,1,1.2,1.5.1.4.3.9.3,1.3,0,.4-.1.7-.2,1.1s-.4.7-.7.9-.8.7-1.3.9c-.5.2-1.2.1-1.7,0,.2.5.3,1,.2,1.4-.1.4-.4.9-.9,1.5l-.5.5c-.4.4-.5.7-.7.8-.1.3-.2.5-.1.7l-.2.2-2-1.7ZM425.7,193l-2-2.2,1.2-5.8h-1.6l-2.7,2.5-1.5-1.7,8.1-7.6,1.5,1.7-3.3,3.1h6.3s2,2.2,2,2.2l-6.5-.2-1.5,8ZM438.7,194.3l-3.8-4.5-1.8,1.5,3.4,4.2-1.5,1.2-3.4-4.2-2.3,1.8,3.9,4.8-1.5,1.2-5.3-6.5,8.5-7.1,5.2,6.3-1.5,1.2ZM435.6,205.6l-1.4-1.8,7.4-5.4-2-2.7,1.6-1.2,5.3,7.2-1.6,1.2-2-2.7-7.4,5.4ZM438.1,209.2l9.3-6.2,1.3,1.9-9.3,6.2-1.3-1.9ZM445.2,220.5l-1.2-2,4.4-7.9-6.7,4.1-1.1-1.8,9.5-5.8,1.2,2.1-4.3,7.8,6.6-4,1.1,1.8-9.6,5.7ZM449.7,223.6c-.2.8-.1,1.6.2,2.3s.9,1.2,1.5,1.4,1.3.3,2,0l-1.2-2.3,1.7-.8,2.1,4.2-5.3,2.7-.7-1.4,1.2-.9c-.7-.1-1.2-.4-1.5-.5-.7-.4-1.1-.9-1.5-1.8-.7-1.3-.7-2.6-.3-3.9s1.5-2.4,3.1-3.2c1.6-.9,3.1-1,4.6-.7,1.4.4,2.5,1.3,3.2,2.8.7,1.2.8,2.4.6,3.5s-.8,2-1.7,2.5l-1-2c.7-.5.9-1.2.9-1.9,0-.4-.1-.9-.4-1.2-.4-.8-1-1.3-1.9-1.5-.9-.1-1.9,0-3.1.7-1.5.7-2.3,1.4-2.5,2.2Z"/>
      <path class="seg-metal" d="M486.4,184.7c-14-24.2-31.8-40.3-31.8-40.3-22.7-22.9-45.1-33.3-51.6-36.6-48.5-24.8-98.3-30.2-147.2-18l.7.7,59.6,49.1-47.5,59.6c2.5-1.5,42.7-15.4,85.2,5.1,4.2,2,8.2,4.4,8.2,4.4,4.9,3,11.2,7.4,17.6,13.8,0,0,1,1,5.2,6.5l74,27.4,27.7-71.7Z"/>
    </g>
  </g>
  <g id="t-hub">
    <g>
      <circle class="st3" cx="302.5" cy="302.4" r="96.4"/>
      <circle class="st5" cx="302.5" cy="302.4" r="79.4"/>
    </g>
    <g>
      <path class="st8" d="M253.2,328.5h7.7v2.3h-5.3v3.7h4.6v2.2h-4.6v3.9h5.5v2.3h-7.9v-14.4h0Z"/>
      <path class="st8" d="M266.5,335.3l-3.9-6.8h2.7l2.9,5.1,2.9-5.1h2.7l-3.9,6.8,4.3,7.6h-2.8l-3.2-5.8-3.2,5.8h-2.8l4.3-7.6Z"/>
      <path class="st8" d="M275.6,328.5h7.7v2.3h-5.3v3.7h4.6v2.2h-4.6v3.9h5.5v2.3h-7.9v-14.4h0Z"/>
      <path class="st8" d="M284.9,335.7c0-4.3,3.3-7.5,7.5-7.5s5.5,1.6,6.7,4.1l-2.2.9c-.8-1.8-2.4-2.8-4.5-2.8s-5.1,2.2-5.1,5.2,2.2,5.2,5.1,5.2,3.7-1.1,4.5-2.9l2.2.9c-1.3,2.9-3.8,4.2-6.7,4.2-4.2,0-7.5-3.1-7.5-7.4Z"/>
      <path class="st8" d="M301,338v-9.4h2.4v9.4c0,1.8,1,3,2.7,3s2.7-1.2,2.7-3v-9.4h2.5v9.4c0,3.1-2.1,5.2-5.2,5.2s-5.1-2.1-5.1-5.2h0Z"/>
      <path class="st8" d="M317,330.9h-3.7v-2.3h9.8v2.3h-3.7v12.1h-2.5v-12.1h0Z"/>
      <path class="st8" d="M325.2,328.5h2.4v14.4h-2.4v-14.4h0Z"/>
      <path class="st8" d="M329.4,328.5h2.6l2.2,7,1.2,4.3,1.2-4.3,2.2-7h2.6l-4.7,14.4h-2.4l-4.7-14.4h0Z"/>
      <path class="st8" d="M343,328.5h7.7v2.3h-5.3v3.7h4.6v2.2h-4.6v3.9h5.5v2.3h-7.9v-14.4h0Z"/>
    </g>
    <path class="st8" d="M278.4,300.2c3.9,9.7,13.3,14.6,23.4,14.7,11.1,0,23.3-6.3,24.8-19.5h-56.9c-.2-2-.2-3.9-.2-3.9,0-18.1,15.9-32.8,32.8-32.8s27.2,9.7,31.3,23h-8.5c-3.9-9.8-11.7-15.4-22.9-15.4s-23.4,8.2-25,21.4h57.3c.1,1,.2,2.7.2,3.7,0,1.7-.4,4.6-.7,6.2-2.3,15.1-17.6,24.8-32.3,24.8s-27.1-7.3-31.3-22.3h7.9,0Z"/>
  </g>
</svg>