<?xml version="1.0" encoding="UTF-8"?>
<svg xmlns="http://www.w3.org/2000/svg" xmlns:xlink="http://www.w3.org/1999/xlink" viewBox="0 0 545.83 545.83">
  <defs>
    <style>
      .cls-1 {
        fill: #ececec;
      }

      .cls-1, .cls-2 {
        mix-blend-mode: multiply;
      }

      .cls-3 {
        fill: none;
      }

      .cls-4 {
        fill: #ff9965;
      }

      .cls-5 {
        isolation: isolate;
      }

      .cls-6 {
        fill: #0c50a0;
      }

      .cls-7 {
        fill: #f4dcbd;
      }

      .cls-8 {
        fill: #f8c1a6;
      }

      .cls-2 {
        fill: #d9d9d9;
      }

      .cls-9 {
        fill: #fff;
      }

      .cls-10 {
        fill: #35090d;
      }

      .cls-11 {
        fill: #f8b133;
      }

      .cls-12 {
        clip-path: url(#clippath);
      }

      .cls-13 {
        fill: #ffac76;
      }

      .cls-14 {
        fill: #e8e8e8;
      }
    </style>
    <clipPath id="clippath">
      <circle class="cls-3" cx="272.92" cy="272.92" r="272.92"/>
    </clipPath>
  </defs>
  <g class="cls-5">
    <g id="Livello_2" data-name="Livello 2">
      <g id="_ëÎÓÈ_1" data-name="ëÎÓÈ 1">
        <g class="cls-12">
          <circle class="cls-7" cx="272.92" cy="272.92" r="272.92"/>
          <g>
            <rect class="cls-4" x="222.5" y="357.13" width="100.85" height="67.94"/>
            <path class="cls-1" d="M246.95,406.27c15.19,6.02,31.87,9.68,48.23,9.81,9.37.08,18.91-1.09,28.16-2.73v-56.23h-100.85v35.14c7.08,6.23,16.13,10.69,24.46,14Z"/>
            <path class="cls-13" d="M384.21,231.3c.35-2.47,4.68-6.49,6.57-7.85,4.22-3.02,8.48.09,9.71,4.02,1.1,3.52,1.2,7.49,1.47,11.14.65,8.91-.74,17.66-4.89,25.7-2.76,5.36-7.1,9.77-12.23,13.1,0,0-5.53,2.66-6.63-3.46,0,0,6-42.62,6-42.65Z"/>
            <path class="cls-13" d="M159.06,231.3c-.34-2.47-4.68-6.49-6.57-7.85-4.22-3.02-8.47.09-9.71,4.02-1.1,3.52-1.2,7.49-1.47,11.14-.65,8.91.75,17.66,4.89,25.7,2.77,5.36,7.1,9.77,12.23,13.1,0,0,5.53,2.66,6.63-3.46,0,0-6-42.62-6-42.65Z"/>
            <path class="cls-13" d="M387.59,239.32c0,28.12-5.01,56.56-18.7,80.89-11.97,21.28-29.91,38.32-49.18,51.93-15.63,11.04-32.4,23.9-52.17,22.33-20.62-1.64-36.69-18.67-51.75-31.96-21.19-18.7-37.92-41.92-48.22-69.23-6.35-16.83-9.27-35.84-9.27-53.96,0-90.91,51.33-148.09,114.64-148.09s114.64,57.18,114.64,148.09Z"/>
            <path class="cls-8" d="M449.02,455.8l-125.68-32.87h-100.85l-125.68,32.87s-58.25,21.57-64.72,89.88h481.63c-6.47-68.31-64.71-89.88-64.71-89.88Z"/>
            <path class="cls-9" d="M449.02,455.8l-125.68-32.87h-100.85l-125.68,32.87s-58.25,21.57-64.72,89.88h481.63c-6.47-68.31-64.71-89.88-64.71-89.88Z"/>
            <path class="cls-6" d="M449.02,455.8l-93.01-24.32-83.09,114.2-82.2-114.44-93.9,24.56s-58.25,21.57-64.72,89.88h481.63c-6.47-68.31-64.71-89.88-64.71-89.88Z"/>
            <polygon class="cls-11" points="281.96 488.46 261.89 488.46 238.73 545.68 304.53 545.68 281.96 488.46"/>
            <g>
              <polygon class="cls-11" points="271.4 424.05 241.92 463.6 262.41 488.62 272.45 488.45 282.47 488.29 302.15 462.62 271.4 424.05"/>
              <path class="cls-2" d="M291.1,458.41c-3.78,7.45-10.79,15.94-20.31,13.84-9.84-2.16-14.37-11.47-12.09-20.94,2.22-9.22,8.17-16.9,11.48-25.63l-28.26,37.91,20.49,25.02,20.06-.33,19.67-25.67-8.32-10.44c-.81,2.12-1.71,4.21-2.73,6.23Z"/>
            </g>
            <path class="cls-10" d="M158.57,228.13s16.83-102.39,69.31-92.32c0,0,47.46,29.53,87.01-.69,0,0,47.98-1.62,74.32,93.01,0,0,6.57-100.95-65.87-136.9,0,0-67.02-30.92-124.38,15.1,0,0-54.33,42.93-40.39,121.8Z"/>
            <polygon class="cls-14" points="173.03 425.33 222.32 402.21 272.58 423.2 322.83 402.21 375.49 425.33 301.02 475.2 272.58 434.44 241.92 475.2 173.03 425.33"/>
          </g>
        </g>
      </g>
    </g>
  </g>
</svg>