<?xml version="1.0" encoding="UTF-8"?>
<svg id="Livello_2" data-name="Livello 2" xmlns="http://www.w3.org/2000/svg" xmlns:xlink="http://www.w3.org/1999/xlink" viewBox="0 0 353.37 353.37">
  <defs>
    <style>
      .cls-1 {
        fill: none;
      }

      .cls-2 {
        fill: #3b2645;
      }

      .cls-3 {
        fill: #f5a784;
      }

      .cls-4 {
        fill: #ffdfd1;
      }

      .cls-5 {
        fill: #8c3d3d;
      }

      .cls-6 {
        fill: #dadeea;
      }

      .cls-7 {
        fill: #e0855c;
      }

      .cls-8 {
        fill: #fff;
      }

      .cls-9 {
        fill: #9669a4;
      }

      .cls-10 {
        clip-path: url(#clippath);
      }
    </style>
    <clipPath id="clippath">
      <circle class="cls-1" cx="176.68" cy="176.68" r="176.68" transform="translate(-73.19 176.68) rotate(-45)"/>
    </clipPath>
  </defs>
  <g id="_Layer_" data-name="&amp;lt;Layer&amp;gt;">
    <g class="cls-10">
      <circle class="cls-4" cx="176.68" cy="176.68" r="176.68" transform="translate(-73.19 176.68) rotate(-45)"/>
      <g>
        <path class="cls-5" d="M88.64,164.69c7.31,22.99,4.57,47.67-5.48,63.21-10.05,15.54-23.76,47.35-6.4,59.78,17.37,12.43,41.99,42.16,41.99,42.16l113.47-13.89,36.48-15.84s12.8-28.67,3.66-44.95c-9.14-16.29-10.97-30.73-1.83-43.16,9.14-12.43,17.55-28.69,5.12-41.13-12.43-12.43-20.66-30.65-25.23-48.96-4.57-18.31-14.37-28.12-30.97-37.25s-60.7-7.72-71.96-5.71c-54.28,9.72-66.16,62.75-58.85,85.74Z"/>
        <path class="cls-5" d="M116.75,164.84s-10.21-22.71-2.47-45.64c2.42-7.17,7.39-13.39,14.18-16.72,1.71-.84,3.49-1.46,5.18-1.63,0,0-6.84-12.91,18.75-24.31,25.58-11.4,66.56-5.51,84.07,28.7,17.51,34.21-2.48,78.96-8.95,85.72-6.47,6.75-97.66,2.66-110.75-26.11Z"/>
        <path class="cls-3" d="M301.32,404.55H48.61s2.15-18.16,5.16-39.53c3.45-24.78,8-53.82,11.45-63.74,4.27-12.23,36.32-18.77,59.43-24.45,11.86-2.93,21.37-5.65,23.56-8.77h53.5c2.07,3.01,10.85,5.57,21.94,8.37,23.2,5.77,56.67,12.35,61.06,24.86,3.45,9.91,8,38.96,11.45,63.74,2.97,21.37,5.16,39.53,5.16,39.53Z"/>
        <path class="cls-3" d="M207.31,271.57l-32.34,16.11-32.34-16.11s4.61-6.89,7.62-20.9c1.66-7.44,2.83-16.78,2.58-28.22h44.27c-.18,8.18.37,15.31,1.35,21.46,2.7,18.57,8.85,27.67,8.85,27.67Z"/>
        <path class="cls-7" d="M198.46,243.9c-15.68,8.36-38.06,7.62-48.2,6.76,1.66-7.44,2.83-16.78,2.58-28.22h44.27c-.18,8.18.37,15.31,1.35,21.46Z"/>
        <path class="cls-3" d="M129.29,176.3s-5.19-20.52-18.1-11.43c-12.91,9.1.01,39.09,18.19,38.93,0,0,4.85-20.12-.09-27.5Z"/>
        <path class="cls-7" d="M115.66,174.45c2.54.75,4.91,3.49,6.59,5.46,1.75,2.05,3.79,4.6,4.48,7.25.22.83-.95,1.19-1.43.63-1.36-1.59-2.38-3.41-3.63-5.1-1.13.98-2.29,1.97-3.75,2.32-1.12.28-1.77-1.16-1.2-1.99.74-1.07,1.96-1.77,3.15-2.4-1.7-1.65-3.82-3.03-5.17-4.88-.52-.71.18-1.53.97-1.3Z"/>
        <path class="cls-3" d="M221.67,176.3s5.19-20.52,18.1-11.43c12.91,9.1-.01,39.09-18.19,38.93,0,0-4.85-20.12.09-27.5Z"/>
        <path class="cls-7" d="M235.31,174.45c-2.54.75-4.91,3.49-6.59,5.46-1.75,2.05-3.79,4.6-4.48,7.25-.22.83.95,1.19,1.43.63,1.36-1.59,2.38-3.41,3.63-5.1,1.13.98,2.29,1.97,3.75,2.32,1.12.28,1.77-1.16,1.2-1.99-.74-1.07-1.96-1.77-3.15-2.4,1.7-1.65,3.82-3.03,5.17-4.88.52-.71-.18-1.53-.97-1.3Z"/>
        <path class="cls-3" d="M225.26,148.8c-10.74-51.51-50.24-47.9-50.24-47.9,0,0-39.5-3.61-50.24,47.9-3.99,19.15-2.78,39.2,4.59,57.32,6.97,17.12,20.34,35.56,45.65,35.56s38.68-18.44,45.65-35.56c7.37-18.12,8.58-38.17,4.59-57.32Z"/>
        <path class="cls-2" d="M151.28,170.73s-4.39,1.63-3.72-6.13c.6-6.98,3.72-6.04,3.72-6.04,0,0,3.05-.02,2.59,6.09-.46,6.11-2.59,6.09-2.59,6.09Z"/>
        <path class="cls-2" d="M196.03,170.73s-4.39,1.63-3.72-6.13c.6-6.98,3.72-6.04,3.72-6.04,0,0,3.05-.02,2.59,6.09-.46,6.11-2.59,6.09-2.59,6.09Z"/>
        <path class="cls-7" d="M184.57,205.33c-3.85,1.08-6.75,3.32-10.94,3.56-3.69.22-6.92-1.64-10.41-1.58-.4,0-.71.47-.47.83,4.02,6.25,19.2,4.31,22.72-1.65.35-.59-.23-1.35-.89-1.16Z"/>
        <path class="cls-2" d="M157.92,147.04c-2.04-1.67-4.98-1.75-7.53-1.71-2.34.03-5.72.05-7.28,2.01-.2.25-.13.59.18.7,2.06.71,4.45-.24,6.59-.27,2.51-.03,5.03.9,7.5.58.57-.07,1.13-.84.54-1.31Z"/>
        <path class="cls-2" d="M203.34,146.11c-1.36-2.36-4.03-2.86-6.6-2.63-2.4.21-6.02.89-7.27,3.16-.19.35-.02.8.37.9,1.92.52,3.58-.62,5.46-1,2.57-.52,4.62.22,7.05.86.74.2,1.38-.62.99-1.29Z"/>
        <path class="cls-7" d="M173.9,190.94c-1.96-.42-6.63-.36-7.38-1.88-.56-1.14,3-9.2,3.4-10.95,1.37-5.94,2.58-12.57,1.32-18.6-.07-.34-.6-.33-.68,0-1.21,5.17-1.26,10.53-2.36,15.75-1.12,5.27-3.01,10.23-4.61,15.36-.2.65.34,1.16.93,1.22,3.41.34,6.06.94,9.37.12.49-.12.51-.91,0-1.02Z"/>
        <path class="cls-5" d="M156.8,104.25s13.97,7.39,32.59,8.6c18.62,1.2,22.65,6.88,23.86,21.82,1.22,14.94,7.45,32.14,14.08,30.03,6.63-2.11,9.12-22.68,9.12-22.68l-20.76-41.17s-56.23-21.85-58.89,3.4Z"/>
        <path class="cls-5" d="M122.53,162.55s2.98-23.94,12.73-27.89c9.75-3.95,19.93-17.88,21.54-30.41,1.61-12.53-17.14-10.51-17.14-10.51l-25.15,43.08s-6.54,14.92,8.01,25.73Z"/>
        <path class="cls-9" d="M250.79,365.02s5.44,18.48,3.7,39.53H93.74c-1.75-21.04,3.7-39.53,3.7-39.53h-43.67c3.45-24.78,8-53.82,11.45-63.74,3.66-10.52,27.95-16.82,49.36-22.02,3.49-.85,6.87-1.67,10.07-2.44,3.09,11.29,9.34,19.34,16.49,25.06,19.05,15.31,46.88,15.31,65.93,0,7.23-5.81,13.61-13.97,16.57-25.47,2.52.61,5.16,1.26,7.88,1.91,22.26,5.36,49.27,11.82,53.18,22.95,3.45,9.91,8,38.96,11.45,63.74h-45.38Z"/>
        <g>
          <path class="cls-6" d="M161.39,178.36h-30.43c-2.98,0-5.4-2.42-5.4-5.4v-15.55c0-2.98,2.42-5.4,5.4-5.4h30.43c2.98,0,5.4,2.42,5.4,5.4v15.55c0,2.98-2.42,5.4-5.4,5.4ZM130.96,155c-1.33,0-2.42,1.09-2.42,2.42v15.55c0,1.33,1.09,2.42,2.42,2.42h30.43c1.33,0,2.42-1.09,2.42-2.42v-15.55c0-1.33-1.09-2.42-2.42-2.42h-30.43Z"/>
          <path class="cls-6" d="M216.55,178.36h-30.43c-2.98,0-5.4-2.42-5.4-5.4v-15.55c0-2.98,2.42-5.4,5.4-5.4h30.43c2.98,0,5.4,2.42,5.4,5.4v15.55c0,2.98-2.42,5.4-5.4,5.4ZM186.12,155c-1.33,0-2.42,1.09-2.42,2.42v15.55c0,1.33,1.09,2.42,2.42,2.42h30.43c1.33,0,2.42-1.09,2.42-2.42v-15.55c0-1.33-1.09-2.42-2.42-2.42h-30.43Z"/>
          <rect class="cls-6" x="163.92" y="163.7" width="18.3" height="2.98"/>
        </g>
        <path class="cls-8" d="M231.53,278.33c-.45,9.75-5.4,68.29-58.5,44.89-51.67,22.75-57.72-31.97-58.46-43.95,3.49-.85,6.87-1.67,10.07-2.44,3.09,11.29,9.34,19.34,16.49,25.06,19.05,15.31,46.88,15.31,65.93,0,7.23-5.81,13.61-13.97,16.57-25.47,2.52.61,5.16,1.26,7.88,1.91Z"/>
      </g>
    </g>
  </g>
</svg>