<?xml version="1.0" encoding="UTF-8"?>
<svg id="Livello_2" data-name="Livello 2" xmlns="http://www.w3.org/2000/svg" xmlns:xlink="http://www.w3.org/1999/xlink" viewBox="0 0 353.37 353.37">
  <defs>
    <style>
      .cls-1 {
        fill: none;
      }

      .cls-2 {
        fill: #3b2645;
      }

      .cls-3 {
        fill: #f5a784;
      }

      .cls-4 {
        fill: #8c3d3d;
      }

      .cls-5 {
        fill: #dadeea;
      }

      .cls-6 {
        fill: #e0855c;
      }

      .cls-7 {
        fill: #fff;
      }

      .cls-8 {
        fill: #5a4963;
      }

      .cls-9 {
        fill: #ffeae0;
      }

      .cls-10 {
        clip-path: url(#clippath);
      }
    </style>
    <clipPath id="clippath">
      <circle class="cls-1" cx="176.68" cy="176.68" r="176.68" transform="translate(-73.19 176.68) rotate(-45)"/>
    </clipPath>
  </defs>
  <g id="_Layer_" data-name="&amp;lt;Layer&amp;gt;">
    <g class="cls-10">
      <circle class="cls-9" cx="176.68" cy="176.68" r="176.68" transform="translate(-73.19 176.68) rotate(-45)"/>
      <g>
        <path class="cls-4" d="M107.14,126.56s-5.63-31.11.89-52.88c2.78-9.3,10.21-16.71,19.53-19.43.17-.05,3.45-21.79,48.16-23.43,44.71-1.64,80.15,17.39,71.45,95.85l-11.16,17.74-60.7-58.63s-52.01,33.64-56.6,49.63c-4.59,15.99-11.56-8.85-11.56-8.85Z"/>
        <path class="cls-3" d="M343.07,398.39H8.3s0-98.23,15.23-107.89c11.29-7.23,67.84-26.69,96.03-36.19,9.67-3.25,16.01-5.32,16.01-5.32h80.23s4.75,1.54,12.26,4.1c26.57,8.9,87.95,29.86,99.81,37.41,15.19,9.67,15.19,107.89,15.19,107.89Z"/>
        <polygon class="cls-3" points="215.81 248.98 178.13 255.31 178.13 256.36 174.99 255.87 171.92 256.36 171.92 255.31 135.58 248.98 137.55 233.12 141.85 198.26 208.19 198.26 211.88 222.97 215.81 248.98"/>
        <path class="cls-6" d="M211.88,222.97c-28.71,13.16-58.96,11.99-74.33,10.14l4.3-34.86h66.34l3.69,24.72Z"/>
        <path class="cls-3" d="M233.29,141.22s5.53-21.88,19.29-12.18c13.76,9.7-.01,41.67-19.39,41.5,0,0-5.17-21.44.1-29.31Z"/>
        <path class="cls-6" d="M247.83,139.24c-2.71.8-5.24,3.72-7.03,5.82-1.87,2.19-4.04,4.9-4.77,7.73-.23.89,1.01,1.27,1.53.67,1.45-1.69,2.54-3.64,3.87-5.44,1.21,1.04,2.44,2.1,4,2.48,1.2.29,1.89-1.23,1.28-2.12-.79-1.14-2.09-1.88-3.35-2.55,1.81-1.75,4.07-3.23,5.52-5.2.55-.75-.19-1.63-1.03-1.38Z"/>
        <path class="cls-3" d="M118.38,139.15s-5.53-21.88-19.29-12.18c-13.76,9.7.01,41.67,19.39,41.5,0,0,5.17-21.45-.1-29.31Z"/>
        <path class="cls-6" d="M103.84,137.18c2.71.8,5.24,3.72,7.03,5.82,1.87,2.19,4.04,4.9,4.77,7.73.23.89-1.01,1.27-1.53.67-1.45-1.69-2.54-3.64-3.87-5.44-1.21,1.04-2.44,2.1-4,2.48-1.2.29-1.89-1.23-1.28-2.12.79-1.14,2.09-1.88,3.35-2.55-1.81-1.75-4.07-3.23-5.52-5.2-.55-.75.19-1.63,1.03-1.38Z"/>
        <path class="cls-3" d="M236.12,113.9c-12.91-61.93-60.41-57.59-60.41-57.59,0,0-47.49-4.34-60.41,57.59-4.8,23.02-3.34,47.14,5.52,68.92,8.37,20.59,24.46,42.75,54.89,42.75s46.51-22.17,54.89-42.75c8.86-21.78,10.32-45.9,5.52-68.92Z"/>
        <path class="cls-6" d="M179.11,163.61c-2.78-.28-9.02,1.69-10.46-1.23-1.2-2.43,2.5-17.28,3.01-19.82,1.81-9.16,3.89-15.4,5.05-26.34.05-.48-.78-.71-.97-.21-5.67,14.73-7.16,32.68-10.26,48.18-.17.85.5,1.71,1.39,1.65,4.04-.27,8.01.39,12.04.22,1.35-.06,1.63-2.3.21-2.45Z"/>
        <path class="cls-7" d="M156.21,181.35h38.18s-7.16,13.54-19.09,13.54-19.09-13.54-19.09-13.54Z"/>
        <path class="cls-2" d="M149.37,135.67s-5.22,1.94-4.43-7.3c.71-8.31,4.43-7.19,4.43-7.19,0,0,3.63-.02,3.08,7.25-.55,7.27-3.08,7.24-3.08,7.24Z"/>
        <path class="cls-2" d="M199.2,135.67s-5.22,1.94-4.43-7.3c.71-8.31,4.43-7.19,4.43-7.19,0,0,3.63-.02,3.08,7.25-.55,7.27-3.08,7.24-3.08,7.24Z"/>
        <path class="cls-2" d="M156.38,108.41c-4.49-2.29-12.88-2.9-16.15,1.78-.59.85.19,2.13,1.2,2.08,2.23-.11,4.2-1.2,6.43-1.38,2.42-.2,4.72.35,7.01,1.08,2.08.66,3.48-2.55,1.5-3.56Z"/>
        <path class="cls-2" d="M206.21,108.41c-4.49-2.29-12.88-2.9-16.15,1.78-.59.85.19,2.13,1.2,2.08,2.23-.11,4.2-1.2,6.43-1.38,2.42-.2,4.72.35,7.02,1.08,2.08.66,3.48-2.55,1.5-3.56Z"/>
        <path class="cls-4" d="M140.03,68.52s28.3,5.78,47.58-4.89c19.28-10.66,51.77,44.19,50.86,67.01l6.06-25.99-29.04-54.96-55.17-4.1s-25.64,13.88-20.3,22.93Z"/>
        <path class="cls-4" d="M140.03,68.52s-20.27,26.48-26.9,59.97l-5.99-10.51s9.82-58,32.89-49.46Z"/>
        <path class="cls-5" d="M249.03,299.02v99.36H103.32l9.26-99.36s4.51,3.29,12.06,7.31c11.62,6.17,30.43,13.97,51.06,13.97,16.01,0,33.11-4.71,46.84-9.67,15.44-5.65,26.49-11.62,26.49-11.62Z"/>
        <path class="cls-2" d="M130.09,398.39H8.3s0-98.23,15.23-107.89c9.26-5.93,48.91-20.07,78.44-30.18,6.5-2.27,12.51-4.31,17.59-6.01,1.1,9.99,3.09,29.09,5.08,52.04,2.44,28.11,4.79,62.03,5.44,92.05Z"/>
        <path class="cls-2" d="M343.07,398.39h-125.6c.61-28.48,2.8-60.53,5.08-87.74,2.15-25.8,4.43-47.37,5.52-57.56,5.93,1.99,13.61,4.59,22.06,7.47,29.45,10.12,68.53,24.09,77.75,29.94,15.19,9.67,15.19,107.89,15.19,107.89Z"/>
        <path class="cls-8" d="M130.09,398.39h-16.29l-20.27-63.98,22.14-26.2-22.14-6.7,8.45-41.19c6.5-2.27,12.51-4.31,17.59-6.01,1.1,9.99,3.09,29.09,5.08,52.04,2.44,28.11,4.79,62.03,5.44,92.05Z"/>
        <path class="cls-8" d="M236.36,308.2l22.14,26.2-20.27,63.98h-20.76c.61-28.48,2.8-60.53,5.08-87.74,2.15-25.8,4.43-47.37,5.52-57.56,5.93,1.99,13.61,4.59,22.06,7.47l8.37,40.95-22.14,6.7Z"/>
      </g>
    </g>
  </g>
</svg>