<?xml version="1.0" encoding="UTF-8"?>
<svg id="Livello_2" data-name="Livello 2" xmlns="http://www.w3.org/2000/svg" xmlns:xlink="http://www.w3.org/1999/xlink" viewBox="0 0 353.37 353.37">
  <defs>
    <style>
      .cls-1 {
        fill: none;
      }

      .cls-2 {
        fill: #2f8dbd;
      }

      .cls-3 {
        fill: #753233;
      }

      .cls-4 {
        fill: #3b2645;
      }

      .cls-5 {
        fill: #ffdfd1;
      }

      .cls-6 {
        fill: #dadeea;
      }

      .cls-7 {
        fill: #9c4345;
      }

      .cls-8 {
        clip-path: url(#clippath);
      }
    </style>
    <clipPath id="clippath">
      <circle class="cls-1" cx="176.68" cy="176.68" r="176.68" transform="translate(-73.19 176.68) rotate(-45)"/>
    </clipPath>
  </defs>
  <g id="_Layer_" data-name="&amp;lt;Layer&amp;gt;">
    <g class="cls-8">
      <circle class="cls-5" cx="176.68" cy="176.68" r="176.68" transform="translate(-73.19 176.68) rotate(-45)"/>
      <g>
        <path class="cls-4" d="M59.11,347.19s-27.77-56.17,12.46-87.18c24.56-18.93,32.45-40.75,27.72-59.7-4.73-18.95.82-69.45,17.46-87.79,16.64-18.34,102.24-33.5,126.81,12.46,24.57,45.96,11.1,78.22,24.57,104.73,13.47,26.52,36.28,33.85,32.8,84.67-3.48,50.82-47.38,84.87-54.52,83.93-7.13-.95-122.54-12.26-131.25-17-8.72-4.74-56.05-34.11-56.05-34.11Z"/>
        <path class="cls-4" d="M118.18,165.71s-10.21-22.71-2.47-45.64c2.42-7.17,7.39-13.39,14.18-16.72,1.71-.84,3.49-1.46,5.18-1.63,0,0-6.84-12.91,18.75-24.31,25.58-11.4,66.56-5.51,84.07,28.7,17.51,34.21-2.48,78.96-8.95,85.72-6.47,6.75-97.66,2.66-110.75-26.11Z"/>
        <path class="cls-7" d="M302.73,405.45H50.06s7.92-66.42,14.22-94.49c.81-3.7,1.63-6.7,2.36-8.82,6.46-18.44,76.57-23.97,83.03-33.19h53.46c6.46,9.22,76.57,14.75,83.03,33.19.89,2.52,1.87,6.34,2.84,10.97,6.22,29.17,13.73,92.34,13.73,92.34Z"/>
        <path class="cls-7" d="M208.73,272.45l-32.34,16.11-32.34-16.11s4.61-6.89,7.62-20.9c1.66-7.44,2.83-16.78,2.58-28.22h44.27c-.18,8.18.37,15.31,1.35,21.46,2.7,18.57,8.85,27.67,8.85,27.67Z"/>
        <path class="cls-3" d="M199.88,244.78c-15.68,8.36-38.06,7.62-48.2,6.76,1.66-7.44,2.83-16.78,2.58-28.22h44.27c-.18,8.18.37,15.31,1.35,21.46Z"/>
        <path class="cls-7" d="M130.72,177.18s-5.19-20.52-18.1-11.43c-12.91,9.1.01,39.09,18.19,38.93,0,0,4.85-20.12-.09-27.5Z"/>
        <path class="cls-3" d="M117.08,175.33c2.54.75,4.91,3.49,6.59,5.46,1.75,2.05,3.78,4.6,4.48,7.25.22.83-.95,1.19-1.43.63-1.36-1.59-2.38-3.42-3.63-5.1-1.13.98-2.29,1.97-3.75,2.32-1.12.27-1.77-1.16-1.2-1.99.74-1.07,1.96-1.77,3.15-2.4-1.7-1.65-3.82-3.03-5.17-4.88-.52-.71.18-1.53.96-1.29Z"/>
        <path class="cls-7" d="M223.1,177.18s5.19-20.52,18.1-11.43c12.91,9.1-.01,39.09-18.19,38.93,0,0-4.85-20.12.09-27.5Z"/>
        <path class="cls-3" d="M236.73,175.33c-2.54.75-4.91,3.49-6.59,5.46-1.75,2.05-3.79,4.6-4.48,7.25-.22.83.95,1.19,1.43.63,1.36-1.59,2.38-3.42,3.63-5.1,1.13.98,2.29,1.97,3.75,2.32,1.12.27,1.77-1.16,1.2-1.99-.74-1.07-1.96-1.77-3.15-2.4,1.7-1.65,3.82-3.03,5.17-4.88.52-.71-.18-1.53-.97-1.29Z"/>
        <path class="cls-7" d="M226.68,149.68c-10.74-51.51-50.24-47.9-50.24-47.9,0,0-39.5-3.61-50.24,47.9-3.99,19.15-2.78,39.2,4.59,57.32,6.97,17.12,20.34,35.56,45.65,35.56s38.68-18.44,45.65-35.56c7.37-18.12,8.58-38.17,4.59-57.32Z"/>
        <path class="cls-4" d="M152.7,171.6s-4.39,1.63-3.72-6.13c.6-6.98,3.72-6.04,3.72-6.04,0,0,3.05-.02,2.59,6.09-.46,6.11-2.59,6.09-2.59,6.09Z"/>
        <path class="cls-4" d="M197.46,171.6s-4.39,1.63-3.72-6.13c.6-6.98,3.72-6.04,3.72-6.04,0,0,3.05-.02,2.59,6.09-.46,6.11-2.59,6.09-2.59,6.09Z"/>
        <path class="cls-3" d="M186,206.21c-3.85,1.08-6.75,3.32-10.94,3.56-3.69.22-6.93-1.64-10.41-1.58-.4,0-.71.47-.47.83,4.02,6.25,19.2,4.31,22.72-1.65.35-.59-.23-1.35-.89-1.16Z"/>
        <path class="cls-4" d="M159.35,147.91c-2.04-1.66-4.98-1.75-7.54-1.71-2.34.03-5.72.05-7.28,2.01-.2.25-.13.59.18.7,2.06.71,4.45-.24,6.59-.27,2.51-.03,5.03.9,7.5.58.57-.07,1.13-.84.54-1.31Z"/>
        <path class="cls-4" d="M204.76,146.99c-1.36-2.36-4.03-2.86-6.6-2.63-2.4.21-6.02.89-7.27,3.16-.19.35-.02.8.37.9,1.92.52,3.58-.62,5.46-1,2.57-.52,4.62.22,7.05.86.74.2,1.38-.62.99-1.29Z"/>
        <path class="cls-3" d="M175.32,191.82c-1.96-.42-6.63-.36-7.38-1.88-.56-1.14,3-9.2,3.4-10.95,1.37-5.94,2.58-12.57,1.32-18.6-.07-.34-.6-.33-.68,0-1.21,5.17-1.26,10.53-2.36,15.75-1.12,5.27-3.01,10.23-4.61,15.36-.2.65.34,1.16.93,1.22,3.41.34,6.07.94,9.37.12.49-.12.51-.91,0-1.02Z"/>
        <path class="cls-4" d="M147.19,111.6s27.15,13.07,61.55,11.19c0,0,18.05,24.79,20.02,42.78,0,0,12.05-21.89-3.11-49.05-15.16-27.16-71.67-35.1-78.45-4.92Z"/>
        <path class="cls-2" d="M302.73,405.45H50.06s.57-4.92,1.58-12.67c.16-1.18.32-2.44.49-3.78.08-.57.12-1.1.2-1.71.16-1.26.33-2.6.53-3.98.69-5.12,1.46-10.89,2.23-16.86l.61-4.02c.08-.65.16-1.26.24-1.91.24-1.62.45-3.21.69-4.83.77-5.28,1.58-10.64,2.4-15.8.28-1.95.61-3.86.93-5.77.2-1.42.45-2.76.65-4.1,1.22-7.23,2.48-13.81,3.66-19.05,31.93,10.52,95.3,12.39,224.72,2.15.85,4.06,1.75,8.73,2.64,13.85.37,1.99.69,4.06,1.06,6.17.04.37.12.73.16,1.1.37,2.19.73,4.47,1.1,6.74.61,3.86,1.18,7.8,1.75,11.78.41,2.56.77,5.12,1.14,7.68.04.2.04.37.08.57.33,2.32.65,4.59.93,6.82.65,4.47,1.22,8.77,1.75,12.76.24,2.03.53,4.02.73,5.89.12.73.2,1.46.28,2.15.24,1.79.45,3.45.65,5,.89,7.23,1.46,11.82,1.46,11.82Z"/>
        <path class="cls-6" d="M121.08,197.52c0-1.58,1.28-2.87,2.87-2.87s2.87,1.28,2.87,2.87-1.28,2.87-2.87,2.87-2.87-1.28-2.87-2.87Z"/>
        <path class="cls-6" d="M226.06,197.52c0-1.58,1.28-2.87,2.87-2.87s2.87,1.28,2.87,2.87-1.28,2.87-2.87,2.87-2.87-1.28-2.87-2.87Z"/>
      </g>
    </g>
  </g>
</svg>